<?xml version="1.0" encoding="utf-8"?>
<!-- Generator: Adobe Illustrator 19.1.0, SVG Export Plug-In . SVG Version: 6.00 Build 0)  -->
<svg version="1.1" id="Layer_1" xmlns="http://www.w3.org/2000/svg" xmlns:xlink="http://www.w3.org/1999/xlink" x="0px" y="0px"
	 viewBox="-49.6 330.5 93.3 129" style="enable-background:new -49.6 330.5 93.3 129;" xml:space="preserve">
<style type="text/css">
	.st0{fill:#FFFFFF;}
</style>
<g>
	<path class="st0" d="M43.7,346.2c0,16.3,0,32.6,0,48.9c0,16.5,0,33.1,0,49.6c0-16.5,0-33.1,0-49.6
		C43.7,378.8,43.7,362.5,43.7,346.2z"/>
	<path class="st0" d="M43.7,346.2c0-0.8,0-1.7-0.1-2.5c-0.5-7.3-6.6-13.2-13.9-13.2c-21.7,0-43.4-0.1-65,0c-2,0-4.1,0.5-5.9,1.3
		c-5.7,2.7-8.4,7.4-8.4,13.7c0,33,0,66.1,0,99.1c0,0.6,0,1.1,0.1,1.7c0.5,7.4,6.7,13.2,14.1,13.2c21.6,0,43.3,0,64.9,0
		c2,0,4.1-0.5,5.9-1.4c5.6-2.7,8.3-7.3,8.3-13.5c0-16.5,0-33.1,0-49.6C43.7,378.8,43.7,362.5,43.7,346.2z M-38.7,344.5
		c0.1-1.9,1.6-3.3,3.5-3.3c21.6,0,43.1,0,64.7,0c1.9,0,3.3,1.4,3.5,3.3c0.1,1.2,0,2.5,0,3.8c-23.9,0-47.7,0-71.7,0
		C-38.7,347-38.8,345.7-38.7,344.5z M32.9,355.7c0,21.5,0,42.9,0,64.4c-23.9,0-47.7,0-71.6,0c0-21.4,0-42.9,0-64.4
		C-14.9,355.7,9,355.7,32.9,355.7z M28.6,448.8c-21,0-42.1,0-63.1,0c-3,0-4.3-1.3-4.3-4.3c0-5.3,0-10.6,0-15.9c0-0.4,0-0.8,0-1.3
		c24,0,47.8,0,71.7,0c0,0.5,0.1,0.9,0.1,1.3c0,5.3,0,10.6,0,15.9C33,447.5,31.6,448.8,28.6,448.8z"/>
	<path class="st0" d="M-2.9,433.1c-3,0-5.4,2.4-5.4,5.4s2.5,5.4,5.4,5.4s5.3-2.4,5.3-5.3C2.5,435.5,0.1,433.1-2.9,433.1z"/>
</g>
</svg>
