<?xml version="1.0" encoding="utf-8"?>
<!-- Generator: Adobe Illustrator 19.1.0, SVG Export Plug-In . SVG Version: 6.00 Build 0)  -->
<svg version="1.1" id="Layer_1" xmlns="http://www.w3.org/2000/svg" xmlns:xlink="http://www.w3.org/1999/xlink" x="0px" y="0px"
	 viewBox="-87.4 311.4 164.8 164.7" style="enable-background:new -87.4 311.4 164.8 164.7;" xml:space="preserve">
<style type="text/css">
	.st0{fill:#FFFFFF;}
</style>
<g>
	<path class="st0" d="M3.2,459.5c0,5.4,0,10.9,0,16.6c-5.5,0-10.9,0-16.5,0c0-5.6,0-11.2,0-16.6c-32.1-6.3-51.2-25.3-57.5-57.5
		c-5.3,0-10.9,0-16.6,0c0-5.6,0-10.9,0-16.5c5.6,0,11.2,0,16.6,0c6.3-32.2,25.3-51.2,57.5-57.5c0-5.3,0-10.9,0-16.6
		c5.5,0,10.9,0,16.5,0c0,5.6,0,11.3,0,16.7c32.1,6.3,51.1,25.3,57.5,57.4c2.5,0,5.3,0,8.1,0s5.6,0,8.6,0c0,5.5,0,10.9,0,16.5
		c-5.6,0-11.2,0-16.6,0C54.3,434.1,35.3,453.1,3.2,459.5z M3.1,442.4c22.4-3.6,37.9-22.3,40.3-40.4c-5.1,0-10.2,0-15.4,0
		c0-5.6,0-11,0-16.5c5.2,0,10.3,0,15.4,0c-2.9-19.9-19.8-37.2-40.3-40.3c0,5.2,0,10.3,0,15.5c-5.6,0-10.9,0-16.5,0
		c0-5.2,0-10.4,0-15.6c-20.8,3.2-37.5,20.6-40.4,40.4c5.2,0,10.3,0,15.5,0c0,5.6,0,11,0,16.5c-5.3,0-10.4,0-15.5,0
		c3,20.2,20.1,37.3,40.4,40.3c0-5.2,0-10.3,0-15.5c5.6,0,10.9,0,16.4,0C3.1,432,3.1,437.1,3.1,442.4z"/>
	<path class="st0" d="M-21.6,393.8c0-9.1,7.3-16.5,16.4-16.5c9.1,0,16.6,7.5,16.6,16.6c0,9-7.5,16.4-16.5,16.4
		C-14.3,410.2-21.6,402.8-21.6,393.8z"/>
</g>
</svg>
