<?xml version="1.0" encoding="utf-8"?>
<!-- Generator: Adobe Illustrator 19.1.0, SVG Export Plug-In . SVG Version: 6.00 Build 0)  -->
<svg version="1.1" id="Layer_1" xmlns="http://www.w3.org/2000/svg" xmlns:xlink="http://www.w3.org/1999/xlink" x="0px" y="0px"
	 viewBox="-69.7 329.8 129.1 129.1" style="enable-background:new -69.7 329.8 129.1 129.1;" xml:space="preserve">
<style type="text/css">
	.st0{fill:#FFFFFF;}
</style>
<path class="st0" d="M-5.2,329.8c14.9,0,29.7,0,44.6,0c5.8,0,10.8,1.8,14.8,6c3.1,3.3,4.7,7.2,5.1,11.7c0.1,0.7,0.1,1.4,0.1,2.1
	c0,29.8,0,59.6,0,89.4c0,5.7-1.7,10.6-5.8,14.6c-3.3,3.2-7.4,4.9-12,5.2c-0.7,0-1.5,0.1-2.2,0.1c-29.7,0-59.4,0-89.1,0
	c-5.9,0-11-1.8-15-6.2c-3-3.2-4.6-7.1-4.9-11.5c-0.1-0.7-0.1-1.5-0.1-2.2c0-29.8,0-59.5,0-89.3c0-5.8,1.8-10.8,6.1-14.8
	c3.3-3.1,7.2-4.7,11.6-5c1.3-0.1,2.5-0.1,3.8-0.1C-33.9,329.8-19.5,329.8-5.2,329.8z M46.6,381.2c-21.7,0-43.2,0-64.7,0
	c0,21.6,0,43.2,0,64.9c0.5,0,1,0,1.4,0c13.4,0,26.7,0,40.1,0c5.5,0,11.1,0,16.6,0c2,0,3.7-0.6,5.1-2.1c1.2-1.3,1.5-3,1.5-4.7
	c0-19,0-37.9,0-56.9C46.6,382,46.6,381.7,46.6,381.2z M-57,368.3c34.6,0,69,0,103.5,0c0-0.4,0-0.7,0-1c0-6,0-12,0-18
	c0-4.3-2.5-6.8-6.8-6.8c-29.9,0-59.8,0-89.7,0c-4.5,0-6.9,2.4-7,6.9c0,4.9,0,9.8,0,14.7C-57,365.5-57,366.9-57,368.3z M-56.9,381.2
	c0,0.4,0,0.8,0,1.1c0,19,0,37.9,0,56.9c0,4.3,2.5,6.8,6.8,6.8c6,0,12,0,18,0c0.3,0,0.7,0,1,0c0-21.7,0-43.2,0-64.9
	C-39.7,381.2-48.2,381.2-56.9,381.2z"/>
</svg>
